<svg width="73" height="108" viewBox="0 0 73 108" fill="none" xmlns="http://www.w3.org/2000/svg">
<path d="M15.0187 98.9869C9.55735 105.541 5.23378 107.634 3.75467 107.862H35.8401C43.486 108.954 48.3557 103.311 49.8348 100.352L70.9975 65.8775C77.005 40.4822 59.3922 28.6721 49.8348 25.9414C55.2962 31.9489 52.1104 40.0499 49.8348 43.3494C40.505 59.1646 20.4801 92.4333 15.0187 98.9869Z" fill="#0B7B6A"/>
<path d="M57.2 9.01305C62.6614 2.45943 66.9849 0.365906 68.4641 0.138351H36.3786C28.7327 -0.953918 23.863 4.68948 22.3839 7.64771L1.2212 42.1225C-4.78629 67.5178 12.8266 79.3279 22.3839 82.0586C16.9226 76.0511 20.1084 67.9501 22.3839 64.6505C31.7137 48.8354 51.7387 15.5667 57.2 9.01305Z" fill="#0B7B6A"/>
</svg>
